<svg width="345" height="38" viewBox="0 0 345 38" fill="none" xmlns="http://www.w3.org/2000/svg">
<g clip-path="url(#clip0_1_8)">
<path d="M321.362 31.2854H329.232V11.1092L329.249 9.45762L327.397 10.6389L322.257 13.9928L319.319 9.69461L332.168 0.104921H336.313V31.2854H344.022V37.418H321.362V31.2854ZM248.922 11.8962C248.922 13.8174 249.543 15.2682 250.783 16.2451C252.025 17.2238 253.555 17.7122 255.373 17.7122C256.946 17.7122 258.222 17.4771 259.202 17.0049C260.181 16.5346 260.95 15.9828 261.51 15.3551C261.544 14.9716 261.579 14.6206 261.613 14.3058C261.649 13.9928 261.666 13.6962 261.666 13.4158C261.666 12.5077 261.535 11.5995 261.273 10.6914C261.01 9.78142 260.599 8.96918 260.042 8.25461C259.48 7.53824 258.763 6.96115 257.891 6.52337C257.016 6.08738 255.985 5.8685 254.797 5.8685C252.943 5.8685 251.5 6.40217 250.47 7.46769C249.438 8.53321 248.922 10.0094 248.922 11.8962ZM241.789 12.2634C241.789 10.4815 242.086 8.84797 242.681 7.36275C243.275 5.87937 244.131 4.5859 245.251 3.48419C246.369 2.3843 247.732 1.52863 249.342 0.917179C250.949 0.305725 252.786 0 254.847 0C259.184 0 262.575 1.19577 265.022 3.58913C267.47 5.98247 268.694 9.41601 268.694 13.8879C268.694 17.9402 268.134 21.4515 267.015 24.4201C265.897 27.3904 264.394 29.8617 262.506 31.8372C260.617 33.8108 258.441 35.3122 255.975 36.3436C253.511 37.3727 250.915 37.9771 248.187 38.1508L246.614 32.5427C248.712 32.2984 250.575 31.8445 252.199 31.1824C253.825 30.5165 255.224 29.6791 256.395 28.6658C257.567 27.6528 258.528 26.5077 259.28 25.2342C260.031 23.957 260.565 22.6038 260.88 21.1711C259.971 22.0792 258.983 22.7088 257.916 23.0579C256.85 23.4089 255.443 23.5825 253.694 23.5825C252.226 23.5825 250.783 23.3546 249.367 22.9005C247.951 22.4465 246.684 21.7482 245.565 20.8057C244.447 19.8613 243.538 18.6819 242.839 17.2672C242.14 15.8525 241.789 14.1846 241.789 12.2634ZM283.172 31.2854H291.037V11.1092L291.056 9.45762L289.202 10.6389L284.062 13.9928L281.126 9.69461L293.975 0.104921H298.118V31.2854H305.829V37.418H283.172V31.2854ZM311.92 16.9126C314.028 16.9126 315.74 18.6204 315.74 20.7279C315.74 22.8354 314.028 24.5449 311.92 24.5449C309.81 24.5449 308.101 22.8354 308.101 20.7279C308.101 18.6204 309.81 16.9126 311.92 16.9126ZM276.199 16.9126C278.31 16.9126 280.019 18.6204 280.019 20.7279C280.019 22.8354 278.31 24.5449 276.199 24.5449C274.092 24.5449 272.38 22.8354 272.38 20.7279C272.38 18.6204 274.092 16.9126 276.199 16.9126Z" fill="white"/>
<path d="M26.5031 32.2587H13.5421L11.6792 38.3569H1.52588e-05L13.9368 1.36043H26.4596L40.3348 38.3569H28.3552L26.5031 32.2587ZM24.0807 24.2501L20.0398 10.9537L15.979 24.2501H24.0807ZM79.4187 38.3569H67.9911V10.4544H55.4267V38.3569H43.9975V1.36043H79.4187V38.3569ZM84.4355 1.36043H119.236V10.5051H107.551V38.3569H96.1219V10.5051H84.4355V1.36043ZM124.365 1.36043H154.978V9.26591H135.845V15.1561H153.58V22.6998H135.845V29.9846H155.546V38.3569H124.365V1.36043ZM195.372 38.3569H182.487L177.988 28.8325C176.946 26.5675 176.136 25.1546 175.55 24.5848C174.972 24.0167 174.163 23.7346 173.136 23.7346V38.3569H161.709V1.36043H173.136V15.5704C174.129 15.5179 174.903 15.1652 175.456 14.5103C176.015 13.8554 176.877 11.9704 178.057 8.86069C178.921 6.56141 179.782 4.90795 180.661 3.90937C181.531 2.91077 182.953 2.19621 184.917 1.75661C186.89 1.31702 189.977 1.10175 194.183 1.10175V8.90411H193.605C191.648 8.90411 190.202 9.27494 189.262 10.0149C188.323 10.7547 187.546 11.9523 186.943 13.6148C186.331 15.2773 185.685 16.5075 184.986 17.327C184.289 18.1446 183.333 18.7995 182.125 19.2807C183.771 19.8234 185.212 20.7551 186.434 22.072C187.667 23.3981 188.969 25.4549 190.348 28.2462L195.372 38.3569ZM222.236 32.2587H209.273L207.412 38.3569H195.733L209.669 1.36043H222.192L236.067 38.3569H224.088L222.236 32.2587ZM219.813 24.2501L215.772 10.9537L211.712 24.2501H219.813Z" fill="white"/>
</g>
<defs>
<clipPath id="clip0_1_8">
<rect width="345" height="38" fill="white"/>
</clipPath>
</defs>
</svg>
