
<svg width="62" height="68" viewBox="0 0 62 68" fill="none" xmlns="http://www.w3.org/2000/svg">
<g clip-path="url(#clip0_782_2)">
<path d="M41.6347 25.1176C40.6145 22.5924 41.6982 19.7745 44.0556 18.822L44.1505 18.7837C46.5028 17.8333 49.2361 19.0995 50.2599 21.6178C53.6114 29.8561 53.9257 30.6706 58.8904 42.9919C61.6774 49.9105 58.7052 57.6269 52.25 60.235L38.3899 65.8348C34.1486 67.5484 29.2441 66.6677 25.5745 63.5345L3.62476 44.7855L4.48295 43.1932C6.16367 39.656 10.3064 38.3338 13.7767 40.2251L18.9362 43.0381L7.25361 14.0658C6.23559 11.5412 7.31983 8.72423 9.67551 7.77247L9.67706 7.77185C12.0343 6.81947 14.7722 8.09536 15.7924 10.6205L22.8746 28.1497C21.9329 25.6552 23.0203 22.911 25.3405 21.9736L25.4409 21.933C27.7981 20.9807 30.5361 22.2551 31.5562 24.7801L32.1509 26.2519C31.1305 23.7264 32.2142 20.9084 34.5726 19.9556L34.5825 19.9516C36.9398 18.9991 39.6775 20.2732 40.6979 22.7988L41.6347 25.1176Z" fill="#F7CAA5"/>
<path d="M43.7175 17.7114L43.6228 17.7497C42.3318 18.2641 41.2787 19.2409 40.6689 20.4897C39.0264 18.6558 36.4318 17.9073 34.1224 18.8404C33.4234 19.1285 32.7893 19.5539 32.2575 20.0912C31.7256 20.6286 31.3069 21.2672 31.026 21.9691C29.3875 20.5075 27.0794 19.9981 24.9991 20.8386L24.8987 20.8791C23.7792 21.3096 22.8372 22.1043 22.2243 23.1353L16.9751 10.1429C15.7049 6.99904 12.2233 5.42924 9.24596 6.63217C6.27128 7.83402 4.86984 11.3741 6.13712 14.516L16.542 40.3389L14.3637 39.1546C13.4115 38.6221 12.3599 38.2913 11.2743 38.1829C10.1887 38.0745 9.0924 38.1907 8.05369 38.5244C7.03739 38.8559 6.09986 39.3923 5.29901 40.1004C4.49815 40.8085 3.85098 41.6733 3.39747 42.6413L2.55291 44.2076C2.42063 44.4528 2.37635 44.7359 2.42745 45.0097C2.47854 45.2836 2.62194 45.5317 2.83373 45.7126L24.7885 64.4742C28.8018 67.9018 34.1958 68.8727 38.8563 66.9898L52.7164 61.3899C59.7821 58.5352 63.0586 50.0767 60.0263 42.5494C58.6516 39.1371 57.63 36.601 56.8055 34.5521C54.63 29.1472 53.8259 27.1505 51.402 21.1921C50.1282 18.0585 46.6867 16.5118 43.7177 17.7114L43.7175 17.7114ZM54.5427 35.4555C55.3672 37.5044 56.3906 40.0467 57.7653 43.459C60.2958 49.7413 57.6242 56.7772 51.8035 59.1289L37.9435 64.7288C34.1281 66.2703 29.691 65.455 26.3714 62.6199L5.16719 44.5042L5.55726 43.7749C5.56676 43.757 5.57577 43.7366 5.58509 43.7182C5.89562 43.0435 6.34182 42.4401 6.89586 41.9455C7.4499 41.4509 8.09991 41.0758 8.80534 40.8435C9.52872 40.6136 10.2917 40.5352 11.0467 40.613C11.8017 40.6908 12.5326 40.9233 13.1939 41.2959L18.3532 44.1085C18.5736 44.2288 18.8259 44.2781 19.0755 44.2495C19.325 44.2209 19.5597 44.1159 19.7473 43.9489C19.9349 43.7819 20.0663 43.5609 20.1235 43.3163C20.1807 43.0717 20.1609 42.8155 20.0668 42.5825L8.38423 13.6102C7.61905 11.7131 8.42936 9.59076 10.1601 8.89149C11.8908 8.19223 13.9486 9.15776 14.7156 11.0561L21.7938 28.5754C21.8109 28.6178 21.8251 28.661 21.8424 28.7039C21.8499 28.7223 21.86 28.7392 21.8673 28.7574L24.8944 36.2496C25.0154 36.5492 25.2506 36.7885 25.5481 36.9148C25.8455 37.041 26.181 37.044 26.4807 36.9229C26.7803 36.8018 27.0196 36.5667 27.1459 36.2692C27.2721 35.9717 27.2751 35.6363 27.154 35.3366L24.0654 27.6921C23.3205 25.8484 24.1268 23.8195 25.8117 23.1388L25.9121 23.0982C27.6427 22.399 29.6937 23.3255 30.4604 25.2232L33.2209 32.0558C33.4732 32.6802 34.1834 32.9812 34.8072 32.7291C35.4313 32.477 35.7328 31.7672 35.4806 31.1428L33.3147 25.782C32.5479 23.8843 33.2957 21.786 35.0367 21.0825C36.7673 20.3833 38.762 21.3737 39.5287 23.2714L41.5719 28.3286C41.693 28.6282 41.9281 28.8675 42.2256 28.9938C42.5231 29.1201 42.8586 29.123 43.1582 29.0019C43.4579 28.8809 43.6971 28.6457 43.8234 28.3482C43.9497 28.0507 43.9526 27.7153 43.8316 27.4156L42.7252 24.6772C41.9584 22.7794 42.8051 20.7084 44.5355 20.0093L44.6306 19.9709C46.3562 19.2737 48.3742 20.2153 49.1435 22.1064C51.5659 28.0608 52.3678 30.0534 54.5426 35.4553L54.5427 35.4555Z" fill="#0C0C0C"/>
<path d="M2.74668 16.4586C3.04632 16.3375 3.2856 16.1024 3.41188 15.8049C3.53816 15.5074 3.54108 15.1719 3.42002 14.8723C1.67285 10.5479 3.76184 5.62627 8.08651 3.87899C12.4105 2.13199 17.332 4.22104 19.0792 8.54557C19.2002 8.84521 19.4354 9.0845 19.7329 9.21077C20.0304 9.33705 20.3658 9.33997 20.6655 9.21891C20.9651 9.09784 21.2044 8.8627 21.3307 8.56521C21.457 8.26773 21.4599 7.93226 21.3388 7.63261C19.0874 2.0602 12.7454 -0.631823 7.17356 1.61935C1.60114 3.87075 -1.09102 10.2128 1.16038 15.7852C1.28144 16.0849 1.51659 16.3242 1.81407 16.4504C2.11156 16.5767 2.44703 16.5796 2.74668 16.4586Z" fill="#0C0C0C"/>
</g>
<defs>
<clipPath id="clip0_782_2">
<rect width="62" height="68" fill="white"/>
</clipPath>
</defs>
</svg>
